
<svg width="20.0112256px" height="20.0104601px" viewBox="0 0 20.0112256 20.0104601" version="1.1" xmlns="http://www.w3.org/2000/svg" xmlns:xlink="http://www.w3.org/1999/xlink">
    <g id="Home-White" stroke="none" stroke-width="1" fill="none" fill-rule="evenodd">
        <g id="global-nav-ask-us-chat-icon" transform="translate(-738.0961, -19.1964)" fill="#064785" fill-rule="nonzero">
            <g id="Chat" transform="translate(738.0961, 19.1964)">
                <path d="M18.6218594,17.2004601 C19.8912643,15.4989006 20.3199063,13.3132122 19.7872069,11.2582366 C19.2545075,9.20326097 17.8180295,7.50105678 15.8818594,6.63046006 C15.3115064,3.34897833 12.7677065,0.7641928 9.49575943,0.141467456 C6.22381231,-0.481257889 2.90836407,0.988380548 1.17246961,3.83093137 C-0.563424859,6.6734822 -0.356534326,10.2941493 1.69185937,12.9204601 L0.301859369,14.3004601 C0.0181148072,14.5880208 -0.0647373607,15.018063 0.0918593694,15.3904601 C0.245262968,15.7638856 0.608157484,16.0084449 1.01185937,16.0104601 L6.70185937,16.0104601 C7.85836097,18.4485946 10.3133478,20.0048462 13.0118594,20.0104601 L19.0118594,20.0104601 C19.4155613,20.0084449 19.7784558,19.7638856 19.9318594,19.3904601 C20.0884561,19.018063 20.0056039,18.5880208 19.7218594,18.3004601 L18.6218594,17.2004601 Z M6.01185937,13.0104601 C6.013233,13.3453354 6.03997621,13.6796255 6.09185937,14.0104601 L3.42185937,14.0104601 L3.77185937,13.6704601 C3.96117202,13.4826935 4.06765769,13.2270976 4.06765769,12.9604601 C4.06765769,12.6938225 3.96117202,12.4382267 3.77185937,12.2504601 C2.6397249,11.1307458 2.00547037,9.60276897 2.01181156,8.01046006 C2.01181156,4.69675156 4.69815087,2.01035188 8.01185937,2.01035188 C10.557808,1.99516034 12.8303852,3.60406456 13.6618594,6.01046006 C13.4418594,6.01046006 13.2318594,6.01046006 13.0118594,6.01046006 C9.14586612,6.01046006 6.01185937,9.14446681 6.01185937,13.0104601 Z M16.5518594,18.0104601 L16.6018594,18.0604601 L13.0118594,18.0604601 C10.6267381,18.0562003 8.57669809,16.3678652 8.11525524,14.0278027 C7.65381238,11.6877403 8.90945698,9.34754884 11.1144136,8.43815996 C13.3193702,7.52877109 15.8596612,8.3034072 17.1820022,10.2884099 C18.5043433,12.2734126 18.2405241,14.9160513 16.5518594,16.6004601 C16.3634451,16.7850905 16.2556164,17.0366908 16.2518594,17.3004601 C16.2529688,17.567706 16.3610037,17.8233886 16.5518594,18.0104601 Z" id="Shape"></path>
            </g>
        </g>
    </g>
</svg>