<svg width="32" height="32" viewBox="0 0 32 32" fill="none" xmlns="http://www.w3.org/2000/svg">
<path d="M16.0003 2.66663C9.74699 2.66663 4.66699 7.74663 4.66699 14C4.66699 20.2533 9.74699 25.3333 16.0003 25.3333H16.667V29.3333C23.147 26.2133 27.3337 20 27.3337 14C27.3337 7.74663 22.2537 2.66663 16.0003 2.66663ZM17.3337 22H14.667V19.3333H17.3337V22ZM17.3337 17.3333H14.667C14.667 13 18.667 13.3333 18.667 10.6666C18.667 9.19996 17.467 7.99996 16.0003 7.99996C14.5337 7.99996 13.3337 9.19996 13.3337 10.6666H10.667C10.667 7.71996 13.0537 5.33329 16.0003 5.33329C18.947 5.33329 21.3337 7.71996 21.3337 10.6666C21.3337 14 17.3337 14.3333 17.3337 17.3333Z" fill="#064785"/>
</svg>
