<svg width="24px" height="24px" viewBox="0 0 24 24" version="1.1" xmlns="http://www.w3.org/2000/svg"
    xmlns:xlink="http://www.w3.org/1999/xlink">
    <g id="Home-White" stroke="none" stroke-width="1" fill="none" fill-rule="evenodd">
        <g id="global-nav-ask-us-icon" fill-rule="nonzero">
            <g id="Help">
                <rect id="Rectangle" fill="#000000" opacity="0"
                    transform="translate(12, 12) rotate(180) translate(-12, -12)" x="1.77635684e-15"
                    y="1.77635684e-15" width="24" height="24"></rect>
                <path
                    d="M12,2 C6.4771525,2 2,6.4771525 2,12 C2,17.5228475 6.4771525,22 12,22 C17.5228475,22 22,17.5228475 22,12 C22,9.3478351 20.9464316,6.80429597 19.0710678,4.92893219 C17.195704,3.0535684 14.6521649,2 12,2 L12,2 Z M12,20 C7.581722,20 4,16.418278 4,12 C4,7.581722 7.581722,4 12,4 C16.418278,4 20,7.581722 20,12 C20,14.1217319 19.1571453,16.1565632 17.6568542,17.6568542 C16.1565632,19.1571453 14.1217319,20 12,20 Z"
                    id="Shape" fill="#ffffff"></path>
                <path
                    d="M12,5.99993178 C10.0670034,5.99993178 8.5,7.56700338 8.5,9.5 C8.5,10.0522847 8.94771525,10.5 9.5,10.5 C10.0522847,10.5 10.5,10.0522847 10.5,9.5 C10.5,8.67157288 11.1715729,8 12,8 C12.8284271,8 13.5,8.67157288 13.5,9.5 C13.5,10.3284271 12.8284271,11 12,11 C11.4477153,11 11,11.4477153 11,12 L11,14 C11,14.5522847 11.4477153,15 12,15 C12.5522847,15 13,14.5522847 13,14 L13,12.84 C14.6708947,12.3520386 15.7267591,10.7074443 15.4749494,8.98506588 C15.2231397,7.2626875 13.7406547,5.98919689 12,5.99993178 Z"
                    id="Path" fill="#ffffff"></path>
                <circle id="Oval" fill="#ffffff" cx="12" cy="17" r="1"></circle>
            </g>
        </g>
    </g>
</svg>