<svg width="24" height="24" viewBox="0 0 24 24" fill="none" xmlns="http://www.w3.org/2000/svg">
<g clip-path="url(#clip0_8_35)">
<path d="M13.4715 18.5438L14.826 18.6157V20.514H9.1755V18.7095L9.95925 18.639C10.3853 18.5917 10.6462 18.4485 10.6462 17.8785V11.2777C10.6462 10.7535 10.5053 10.5877 10.053 10.5877L9.2235 10.5413V8.57175H13.473L13.4715 18.5438ZM11.8102 3.486C12.8557 3.486 13.614 4.27125 13.614 5.2665C13.614 6.26475 12.8535 7.00125 11.7855 7.00125C10.695 7.00125 9.9825 6.26475 9.9825 5.2665C9.9825 4.27125 10.695 3.486 11.8102 3.486ZM12 24C5.3835 24 0 18.6165 0 12C0 5.3835 5.3835 0 12 0C18.615 0 24 5.3835 24 12C24 18.6165 18.615 24 12 24ZM12 2.25C6.624 2.25 2.25 6.624 2.25 12C2.25 17.376 6.624 21.75 12 21.75C17.376 21.75 21.75 17.376 21.75 12C21.75 6.624 17.376 2.25 12 2.25Z" fill="#064785"/>
</g>
<defs>
<clipPath id="clip0_8_35">
<rect width="24" height="24" fill="white"/>
</clipPath>
</defs>
</svg>
