
<svg width="14px" height="17.5px" viewBox="0 0 14 17.5" version="1.1" xmlns="http://www.w3.org/2000/svg" xmlns:xlink="http://www.w3.org/1999/xlink">
    <g id="Home-White" stroke="none" stroke-width="1" fill="none" fill-rule="evenodd">
        <g id="global-nav-person-icon" transform="translate(-1076.1096, -23.504)" fill="#064785" fill-rule="nonzero">
            <g id="Login" transform="translate(1076.1096, 22)">
                <g id="Person" transform="translate(0, 1.504)">
                    <path d="M11.9,9.1 C13.0597979,9.1 14,10.040202 14,11.2 L14,11.9 C14,14.6600212 11.396686,17.5 7,17.5 C2.60331396,17.5 0,14.6600212 0,11.9 L0,11.2 C0,10.040202 0.940202032,9.1 2.1,9.1 L11.9,9.1 Z M7,0 C9.12629628,0 10.85,1.72370372 10.85,3.85 C10.85,5.97629628 9.12629628,7.7 7,7.7 C4.87370372,7.7 3.15,5.97629628 3.15,3.85 C3.15,1.72370372 4.87370372,0 7,0 Z" id="Shape"></path>
                </g>
            </g>
        </g>
    </g>
</svg>