
<svg width="15.9794441px" height="15.975766px" viewBox="0 0 15.9794441 15.975766" version="1.1" xmlns="http://www.w3.org/2000/svg" xmlns:xlink="http://www.w3.org/1999/xlink">
    <g id="Home-White" stroke="none" stroke-width="1" fill="none" fill-rule="evenodd">
        <g id="global-nav-phone-icon" transform="translate(-936.112, -25.2137)" fill="#064785" fill-rule="nonzero">
            <g id="Phone-Global" transform="translate(936.112, 22)">
                <g id="Phone" transform="translate(0, 3.2137)">
                    <path d="M12.2018442,9.97372162 C11.1018442,9.87372162 10.5018442,11.3737216 9.70184423,11.7737216 C8.40184423,12.4737216 6.00184423,9.97372162 6.00184423,9.97372162 C6.00184423,9.97372162 3.50184423,7.57372162 4.10184423,6.27372162 C4.60184423,5.47372162 6.10184423,4.87372162 6.00184423,3.77372162 C5.90184423,2.77372162 3.70184423,-0.826278379 2.60184423,0.173721621 C0.201844231,2.37372162 0.00184423106,3.27372162 0.00184423106,5.07372162 C-0.0981557689,8.17372162 3.90184423,12.0737216 3.90184423,12.0737216 C4.30184423,12.4737216 7.80184423,16.0737216 10.9018442,15.9737216 C12.7018442,15.9737216 13.6018442,15.7737216 15.8018442,13.3737216 C16.8018442,12.2737216 13.3018442,10.0737216 12.2018442,9.97372162 Z" id="Path"></path>
                </g>
            </g>
        </g>
    </g>
</svg>